<svg id="Layer_1" data-name="Layer 1" xmlns="http://www.w3.org/2000/svg" xmlns:xlink="http://www.w3.org/1999/xlink" viewBox="0 0 315 315"><defs><style>.cls-1,.cls-3{fill:none;}.cls-2{clip-path:url(#clip-path);}.cls-3{stroke:#4c91ce;stroke-linecap:round;stroke-linejoin:round;stroke-width:30px;}.cls-4{fill:#46a8de;}</style><clipPath id="clip-path" transform="translate(-138 -265.89)"><rect class="cls-1" x="141" y="265.89" width="312" height="312"/></clipPath></defs><title>create-outline3</title><g class="cls-2"><path class="cls-3" d="M393,397.89v138a30,30,0,0,1-30,30H183a30,30,0,0,1-30-30v-180a30,30,0,0,1,30-30H308.61" transform="translate(-138 -265.89)"/><path class="cls-4" d="M450,269.83a12,12,0,0,0-17.41-.42l-9.28,9.23a6,6,0,0,0,0,8.48l8.51,8.49a6,6,0,0,0,8.5,0l9.05-9a12.19,12.19,0,0,0,.63-16.78ZM404.5,297.39,269.11,432.54a6.8,6.8,0,0,0-1.73,2.95l-6.26,18.65a2.94,2.94,0,0,0,3.65,3.65l18.63-6.27a6.7,6.7,0,0,0,3-1.73L421.5,314.39a6.76,6.76,0,0,0,0-9.5l-7.46-7.5a6.75,6.75,0,0,0-9.54,0Zm0,0" transform="translate(-138 -265.89)"/></g></svg>